<svg width="97" height="96" xmlns="http://www.w3.org/2000/svg" xmlns:xlink="http://www.w3.org/1999/xlink" xml:space="preserve" overflow="hidden"><g transform="translate(-736 -392)"><g><g><g><g><path d="M815.963 414.744C817.599 411.046 818.775 407.161 819.463 403.176L813.583 402C813.031 405.131 812.164 408.198 810.994 411.155 809.176 410.003 807.084 409.355 804.933 409.278 799.579 409.278 795.944 414.167 787.312 415.513 788.554 417.023 790.075 418.28 791.793 419.213 782.144 429.937 773.327 432.8 768.523 434.349 767.66 434.627 766.915 434.867 766.313 435.102 764.23 435.861 762.263 436.907 760.469 438.208 758.743 439.459 757.219 440.968 755.951 442.682 754.681 444.41 753.695 446.329 753.031 448.368 751.765 452.335 751.661 456.582 752.731 460.607 753.204 462.361 753.905 464.046 754.816 465.617 756.611 468.693 759.145 471.274 762.187 473.126 765.307 475.004 768.88 475.997 772.522 476 772.629 476 772.732 476 772.838 476 776.229 476 779.598 475.458 782.817 474.393 785.956 473.339 788.933 471.854 791.663 469.981 794.411 468.091 796.936 465.895 799.189 463.435 801.487 460.932 803.58 458.249 805.448 455.41 807.329 452.556 809.024 449.583 810.521 446.51 812.117 443.177 813.485 439.74 814.614 436.221 815.929 437.303 817.43 438.138 819.043 438.683 817.229 427.04 824.505 422.359 815.963 414.744ZM815.155 404.354 817.121 404.747C816.468 407.757 815.524 410.696 814.3 413.522L812.669 412.347 812.85 411.891C813.819 409.444 814.589 406.924 815.155 404.354ZM808.724 445.63C807.264 448.627 805.612 451.526 803.778 454.31 801.969 457.06 799.942 459.659 797.716 462.083 795.565 464.432 793.155 466.529 790.531 468.333 787.955 470.101 785.147 471.503 782.186 472.5 779.089 473.517 775.846 474.024 772.586 474 770.917 474.013 769.255 473.786 767.65 473.327 766.095 472.893 764.606 472.25 763.224 471.416 760.468 469.737 758.173 467.398 756.547 464.611 755.724 463.193 755.092 461.674 754.666 460.091 753.694 456.438 753.789 452.584 754.938 448.983 755.535 447.15 756.422 445.424 757.564 443.871 758.71 442.322 760.086 440.959 761.646 439.828 763.296 438.632 765.105 437.671 767.021 436.974 767.588 436.753 768.308 436.522 769.14 436.253 774.206 434.619 783.579 431.582 793.781 420 794.464 420.193 795.171 420.294 795.881 420.3 797.296 420.29 798.682 419.896 799.89 419.158L801.856 428.907 811.74 427.807C811.11 430.134 811.586 432.622 813.03 434.553 811.877 438.349 810.437 442.052 808.724 445.63ZM817.624 427.294C817.033 429.946 816.739 432.656 816.748 435.373 814.84 434.094 812.856 431.85 813.692 428.258L814.333 425.505 811.523 425.817 803.459 426.717 801.859 418.763 801.3 416.007 798.88 417.433C797.98 417.99 796.944 418.289 795.886 418.298 794.254 418.22 792.687 417.636 791.4 416.629 793.873 415.834 796.262 414.795 798.531 413.529 800.931 412.269 802.831 411.274 804.937 411.274 806.737 411.364 808.481 411.921 810 412.891L810.447 413.21 814.34 416.01 814.63 416.234C819 420.134 818.513 422.677 817.623 427.294Z" fill="#FFFFFF" fill-rule="nonzero" fill-opacity="1"/></g></g></g></g></g></svg>